{"title":"Jo.S01E06E07.HDTV.XviD-Tallyortoby","uid":8247729,"size":711949110,"categoryP":"video","categoryS":"tv_shows","magnet":"?xt=urn:btih:06bb7cae74dcf6e95d0fed7ee04fa81633b45334&amp;dn=Jo.S01E06E07.HDTV.XviD-Tallyortoby&amp;tr=udp%3A%2F%2Ftracker.openbittorrent.com%3A80&amp;tr=udp%3A%2F%2Fopen.demonii.com%3A1337&amp;tr=udp%3A%2F%2Ftracker.coppersurfer.tk%3A6969&amp;tr=udp%3A%2F%2Fexodus.desync.com%3A6969","seeders":1,"leechers":0,"uploader":"Tallyortoby","files":2,"time":1363098385,"description":"I took the PSIG Files, removed the Polish track and converted them to avi files with SUPER from eRightsoft.\n\nFormat                                   : AVI\nFormat/Info                              : Audio Video Interleave\nFile size                                : 330 MiB\nDuration                                 : 45mn 16s\nOverall bit rate                         : 1 020 Kbps\nMovie name                               : Jo.S01E06.HDTV.XviD-Tallyortoby (1).mkv\nDirector                                 : created.with.SUPER(C)+Recorder.2013.55\nWriting application                      : SUPER(C)   \n\nVideo\nID                                       : 0\nFormat                                   : MPEG-4 Visual\nFormat profile                           : Advanced Simple@L5\nFormat settings, BVOP                    : No\nFormat settings, QPel                    : No\nFormat settings, GMC                     : No warppoints\nFormat settings, Matrix                  : Default (H.263)\nCodec ID                                 : XVID\nCodec ID/Hint                            : XviD\nDuration                                 : 45mn 16s\nBit rate                                 : 879 Kbps\nWidth                                    : 640 pixels\nHeight                                   : 360 pixels\nDisplay aspect ratio                     : 16:9\nFrame rate                               : 25.000 fps\nColor space                              : YUV\nChroma subsampling                       : 4:2:0\nBit depth                                : 8 bits\nScan type                                : Progressive\nCompression mode                         : Lossy\nBits/(Pixel*Frame)                       : 0.153\nStream size                              : 285 MiB (86%)\nWriting library                          : SUPER(C)   \n\nAudio\nID                                       : 1\nFormat                                   : MPEG Audio\nFormat version                           : Version 1\nFormat profile                           : Layer 3\nMode                                     : Joint stereo\nMode extension                           : MS Stereo\nCodec ID                                 : 55\nCodec ID/Hint                            : MP3\nDuration                                 : 45mn 16s\nBit rate mode                            : Constant\nBit rate                                 : 128 Kbps\nChannel(s)                               : 2 channels\nSampling rate                            : 48.0 KHz\nCompression mode                         : Lossy\nStream size                              : 41.5 MiB (13%)\nAlignment                                : Aligned on interleaves\nInterleave, duration                     : 24 ms (0.60 video frame)\nInterleave, preload duration             : 24 ms","torrent":{"xt":"urn:btih:06bb7cae74dcf6e95d0fed7ee04fa81633b45334","amp;dn":"Jo.S01E06E07.HDTV.XviD-Tallyortoby","amp;tr":["udp%3A%2F%2Ftracker.openbittorrent.com%3A80","udp%3A%2F%2Fopen.demonii.com%3A1337","udp%3A%2F%2Ftracker.coppersurfer.tk%3A6969","udp%3A%2F%2Fexodus.desync.com%3A6969"],"infoHash":"06bb7cae74dcf6e95d0fed7ee04fa81633b45334","infoHashBuffer":{"type":"Buffer","data":[6,187,124,174,116,220,246,233,93,15,237,126,224,79,168,22,51,180,83,52]},"announce":[],"urlList":[]}}